<svg width="24" height="24" viewBox="0 0 24 24" fill="none" xmlns="http://www.w3.org/2000/svg">
<path fill-rule="evenodd" clip-rule="evenodd" d="M5.70711 18.4179C6.09763 18.8084 6.09763 19.4416 5.70711 19.8321L3.70711 21.8321C3.31658 22.2226 2.68342 22.2226 2.29289 21.8321C1.90237 21.4416 1.90237 20.8084 2.29289 20.4179L4.29289 18.4179C4.68342 18.0274 5.31658 18.0274 5.70711 18.4179ZM18.2929 18.4179C18.6834 18.0274 19.3166 18.0274 19.7071 18.4179L21.7071 20.4179C22.0976 20.8084 22.0976 21.4416 21.7071 21.8321C21.3166 22.2226 20.6834 22.2226 20.2929 21.8321L18.2929 19.8321C17.9024 19.4416 17.9024 18.8084 18.2929 18.4179Z" fill="#20506C"/>
<path d="M3.26344 2.14786C3.87388 2.0497 4.4198 2.28636 4.8518 2.50236L5.4473 2.80011C5.94127 3.0471 6.1415 3.64777 5.89451 4.14175C5.64752 4.63573 5.04685 4.83595 4.55287 4.58897L3.95737 4.29122C3.76728 4.19617 3.65529 4.15276 3.58707 4.13373L3.5827 4.13253L3.57907 4.13495C3.52044 4.17437 3.42756 4.25097 3.27689 4.40164C3.12622 4.55232 3.04961 4.64519 3.01019 4.70382L3.00777 4.70745L3.00897 4.71183C3.02801 4.78005 3.07141 4.89204 3.16646 5.08213L3.46421 5.67762C3.7112 6.1716 3.51097 6.77228 3.017 7.01927C2.52302 7.26626 1.92234 7.06603 1.67535 6.57205L1.37761 5.97656C1.16161 5.54456 0.924939 4.99864 1.0231 4.3882C1.12139 3.77699 1.51789 3.33221 1.86268 2.98743C2.20746 2.64265 2.65224 2.24615 3.26344 2.14786Z" fill="#20506C"/>
<path d="M20.4131 4.13373C20.3449 4.15276 20.2329 4.19617 20.0428 4.29122L19.4473 4.58897C18.9533 4.83595 18.3526 4.63573 18.1057 4.14175C17.8587 3.64777 18.0589 3.0471 18.5529 2.80011L19.1484 2.50236C19.5804 2.28636 20.1263 2.0497 20.7367 2.14786C21.3479 2.24615 21.7927 2.64265 22.1375 2.98743C22.4823 3.33221 22.8788 3.77699 22.9771 4.3882C23.0752 4.99864 22.8386 5.54456 22.6226 5.97656L22.3248 6.57205C22.0778 7.06603 21.4771 7.26626 20.9832 7.01927C20.4892 6.77228 20.289 6.17161 20.536 5.67763L20.8337 5.08213C20.9287 4.89204 20.9722 4.78005 20.9912 4.71183L20.9924 4.70745L20.99 4.70382C20.9506 4.64519 20.8739 4.55232 20.7233 4.40164C20.5726 4.25097 20.4797 4.17437 20.4211 4.13495L20.4175 4.13253L20.4131 4.13373Z" fill="#20506C"/>
<path d="M12.0002 3.375C17.385 3.375 21.7502 7.74022 21.7502 13.125C21.7502 18.5098 17.385 22.875 12.0002 22.875C6.61547 22.875 2.25024 18.5098 2.25024 13.125C2.25024 7.74022 6.61547 3.375 12.0002 3.375ZM12.0002 8.625C11.448 8.625 11.0002 9.07272 11.0002 9.625V13.625C11.0002 13.8902 11.1057 14.1445 11.2932 14.332L13.2932 16.332C13.6837 16.7226 14.3168 16.7226 14.7073 16.332C15.0978 15.9415 15.0978 15.3085 14.7073 14.918L13.0002 13.2109V9.625C13.0002 9.07272 12.5525 8.625 12.0002 8.625Z" fill="#20506C"/>
<path fill-rule="evenodd" clip-rule="evenodd" d="M9 2.125C9 1.57272 9.44772 1.125 10 1.125L14 1.125C14.5523 1.125 15 1.57272 15 2.125C15 2.67728 14.5523 3.125 14 3.125L13 3.125V3.625C13 4.17728 12.5523 4.625 12 4.625C11.4477 4.625 11 4.17728 11 3.625V3.125L10 3.125C9.44772 3.125 9 2.67728 9 2.125Z" fill="#20506C"/>
</svg>
